<svg width="110" height="27" viewBox="0 0 110 27" fill="none" xmlns="http://www.w3.org/2000/svg">
<circle cx="13.5" cy="13.5" r="13.5" fill="#EB1700" fill-opacity="0.8"/>
<path d="M9.85938 22.1602C9.35156 22.1602 8.90885 22.0299 8.53125 21.7695C8.15365 21.5221 7.82161 21.2031 7.53516 20.8125C7.26172 20.4089 7.02734 19.9987 6.83203 19.582C6.49349 18.8659 6.23958 18.0586 6.07031 17.1602C5.90104 16.2487 5.78385 15.3307 5.71875 14.4062C5.66667 13.4688 5.64062 12.6094 5.64062 11.8281C5.64062 11.3073 5.64714 10.793 5.66016 10.2852C5.67318 9.77734 5.6862 9.26302 5.69922 8.74219C5.71224 8.50781 5.73177 8.25391 5.75781 7.98047C5.79688 7.69401 5.88151 7.45312 6.01172 7.25781C6.15495 7.04948 6.38281 6.94531 6.69531 6.94531C7.29427 6.94531 7.59375 7.26432 7.59375 7.90234C7.59375 8.31901 7.57422 8.74219 7.53516 9.17188C7.50911 9.60156 7.49609 10.0247 7.49609 10.4414C7.49609 10.6758 7.49609 11.0729 7.49609 11.6328C7.50911 12.1797 7.52865 12.8112 7.55469 13.5273C7.59375 14.2435 7.65885 14.9727 7.75 15.7148C7.84115 16.457 7.97135 17.1471 8.14062 17.7852C8.3099 18.4232 8.53125 18.944 8.80469 19.3477C9.09115 19.7383 9.4362 19.9336 9.83984 19.9336C10.1784 19.9336 10.4453 19.8164 10.6406 19.582C10.8359 19.3346 10.9922 19.0352 11.1094 18.6836C11.2266 18.332 11.3372 17.9805 11.4414 17.6289C11.5586 17.2643 11.7018 16.9648 11.8711 16.7305C12.0404 16.4831 12.2747 16.3594 12.5742 16.3594C13.1992 16.3594 13.5117 16.6589 13.5117 17.2578C13.5117 17.7786 13.401 18.3125 13.1797 18.8594C12.9714 19.3932 12.7435 19.8815 12.4961 20.3242C12.2096 20.832 11.8516 21.2682 11.4219 21.6328C11.0052 21.9844 10.4844 22.1602 9.85938 22.1602ZM21.2461 18.2148C20.9076 18.2148 20.6732 18.0846 20.543 17.8242C20.4128 17.5508 20.3281 17.2708 20.2891 16.9844C20.1849 16.2031 20.0286 15.3893 19.8203 14.543C19.612 13.6836 19.3516 12.8438 19.0391 12.0234C18.7266 11.2031 18.349 10.4674 17.9062 9.81641C17.8411 9.71224 17.75 9.57552 17.6328 9.40625C17.5286 9.23698 17.431 9.0612 17.3398 8.87891C17.2487 8.69661 17.2031 8.54688 17.2031 8.42969C17.2031 8.14323 17.2812 7.94141 17.4375 7.82422C17.6068 7.70703 17.8216 7.64844 18.082 7.64844C18.2513 7.64844 18.4271 7.72656 18.6094 7.88281C18.7917 8.03906 18.9674 8.23438 19.1367 8.46875C19.306 8.6901 19.4557 8.91146 19.5859 9.13281C19.7161 9.35417 19.8138 9.52344 19.8789 9.64062C20.1133 10.0703 20.3672 10.6107 20.6406 11.2617C20.9271 11.9128 21.1875 12.6029 21.4219 13.332C21.6693 14.0612 21.8711 14.7643 22.0273 15.4414C22.1836 16.1055 22.2617 16.6719 22.2617 17.1406C22.2617 17.8568 21.9232 18.2148 21.2461 18.2148Z" fill="white"/>
<circle cx="40.25" cy="13.5" r="13.5" fill="#EB1700" fill-opacity="0.8"/>
<path d="M73.6143 26.1621C72.9287 26.1621 72.5859 25.793 72.5859 25.0547V20.2031H69.3691C68.5605 20.2031 67.9365 20.0449 67.4971 19.7285C67.0752 19.4121 66.8643 18.8232 66.8643 17.9619V7.81055C66.8643 6.31641 67.6025 5.56934 69.0791 5.56934H72.5859V2.45801C72.5859 2.10645 72.665 1.83398 72.8232 1.64062C72.9814 1.42969 73.2451 1.32422 73.6143 1.32422C73.9658 1.32422 74.2207 1.42969 74.3789 1.64062C74.5371 1.83398 74.6162 2.10645 74.6162 2.45801V5.56934H78.0967C78.9053 5.56934 79.5293 5.72754 79.9688 6.04395C80.4082 6.34277 80.6279 6.93164 80.6279 7.81055V17.9619C80.6279 19.4561 79.8809 20.2031 78.3867 20.2031H74.6162V25.0547C74.6162 25.3887 74.5371 25.6523 74.3789 25.8457C74.2207 26.0566 73.9658 26.1621 73.6143 26.1621ZM61.3799 26.1621C60.9756 26.1621 60.6943 26.0391 60.5361 25.793C60.3955 25.5469 60.3252 25.2393 60.3252 24.8701V15.668C60.2197 15.791 60.0439 16.002 59.7979 16.3008C59.5693 16.582 59.3057 16.8896 59.0068 17.2236C58.708 17.54 58.418 17.8125 58.1367 18.041C57.8555 18.2695 57.6357 18.3838 57.4775 18.3838C57.1436 18.3838 56.9062 18.2783 56.7656 18.0674C56.6426 17.8389 56.5811 17.5752 56.5811 17.2764C56.5811 17.0303 56.6777 16.7842 56.8711 16.5381C57.0645 16.292 57.249 16.0898 57.4248 15.9316C58.1807 15.2109 58.8838 14.4463 59.5342 13.6377C60.1846 12.8291 60.791 11.9854 61.3535 11.1064C61.4062 11.0361 61.5293 10.8516 61.7227 10.5527C61.916 10.2539 62.127 9.91992 62.3555 9.55078C62.584 9.18164 62.7773 8.84766 62.9355 8.54883C63.1113 8.25 63.1992 8.07422 63.1992 8.02148C63.1992 7.91602 63.1553 7.8457 63.0674 7.81055C62.9971 7.75781 62.918 7.73145 62.8301 7.73145H57.8994C57.5303 7.73145 57.2227 7.66113 56.9766 7.52051C56.7305 7.3623 56.6074 7.08105 56.6074 6.67676C56.6074 6.27246 56.7305 6 56.9766 5.85938C57.2227 5.70117 57.5303 5.62207 57.8994 5.62207H60.3252V2.64258C60.3252 2.27344 60.4043 1.96582 60.5625 1.71973C60.7207 1.45605 61.002 1.32422 61.4062 1.32422C61.8105 1.32422 62.0918 1.45605 62.25 1.71973C62.4082 1.96582 62.4873 2.27344 62.4873 2.64258V5.62207C62.6982 5.62207 62.9971 5.61328 63.3838 5.5957C63.7705 5.56055 64.166 5.56055 64.5703 5.5957C64.9922 5.63086 65.3438 5.73633 65.625 5.91211C65.9062 6.07031 66.0469 6.33398 66.0469 6.70312C66.0469 6.91406 65.9502 7.23047 65.7568 7.65234C65.5635 8.05664 65.3086 8.51367 64.9922 9.02344C64.6934 9.51562 64.377 10.0166 64.043 10.5264C63.709 11.0361 63.3926 11.502 63.0938 11.9238C62.8125 12.3281 62.6016 12.6445 62.4609 12.873V14.165C62.6543 13.8662 62.918 13.7168 63.252 13.7168C63.4102 13.7168 63.6475 13.8662 63.9639 14.165C64.2803 14.4639 64.6055 14.833 64.9395 15.2725C65.291 15.6943 65.5898 16.0986 65.8359 16.4854C66.082 16.8545 66.2051 17.1182 66.2051 17.2764C66.2051 17.8916 65.8887 18.1992 65.2559 18.1992C65.0801 18.1992 64.8516 18.0674 64.5703 17.8037C64.2891 17.5225 63.999 17.1973 63.7002 16.8281C63.4189 16.4414 63.1641 16.0811 62.9355 15.7471C62.707 15.3955 62.5488 15.1494 62.4609 15.0088V24.8701C62.4609 25.2393 62.3818 25.5469 62.2236 25.793C62.0654 26.0391 61.7842 26.1621 61.3799 26.1621ZM68.8945 11.792H72.5859V7.54688H69.8965C69.2285 7.54688 68.8945 7.88086 68.8945 8.54883V11.792ZM74.6162 11.792H78.5186V8.5752C78.5186 8.25879 78.4219 8.0127 78.2285 7.83691C78.0527 7.64355 77.8066 7.54688 77.4902 7.54688H74.6162V11.792ZM69.8965 18.2256H72.5859V13.6904H68.8945V17.2236C68.8945 17.8916 69.2285 18.2256 69.8965 18.2256ZM74.6162 18.2256H77.4902C77.8066 18.2256 78.0527 18.1377 78.2285 17.9619C78.4219 17.7686 78.5186 17.5137 78.5186 17.1973V13.6904H74.6162V18.2256ZM88.8018 26.1885C88.3799 26.1885 88.0898 26.0566 87.9316 25.793C87.7734 25.5293 87.6943 25.2041 87.6943 24.8174V15.8262C87.5713 15.9492 87.3691 16.1602 87.0879 16.459C86.8242 16.7578 86.5254 17.0742 86.1914 17.4082C85.875 17.7422 85.5674 18.0322 85.2686 18.2783C84.9697 18.5068 84.7236 18.6211 84.5303 18.6211C84.1787 18.6211 83.9326 18.5068 83.792 18.2783C83.6514 18.0498 83.5811 17.7773 83.5811 17.4609C83.5811 17.1621 83.7041 16.8896 83.9502 16.6436C84.1963 16.3975 84.416 16.1865 84.6094 16.0107C85.7168 15.0439 86.7627 13.9893 87.7471 12.8467C88.749 11.7041 89.6543 10.5176 90.4629 9.28711C90.498 9.23438 90.5771 9.12012 90.7002 8.94434C90.8232 8.75098 90.9375 8.56641 91.043 8.39062C91.166 8.19727 91.2275 8.07422 91.2275 8.02148C91.2275 7.82812 91.1221 7.73145 90.9111 7.73145H84.9521C84.583 7.73145 84.2754 7.66113 84.0293 7.52051C83.7832 7.3623 83.6602 7.08105 83.6602 6.67676C83.6602 6.27246 83.7832 6 84.0293 5.85938C84.2754 5.70117 84.583 5.62207 84.9521 5.62207H87.6943V2.69531C87.6943 2.30859 87.7734 1.9834 87.9316 1.71973C88.0898 1.45605 88.3799 1.32422 88.8018 1.32422C89.2412 1.32422 89.54 1.45605 89.6982 1.71973C89.8564 1.96582 89.9355 2.29102 89.9355 2.69531V5.62207H92.4404C92.8623 5.62207 93.2578 5.70117 93.627 5.85938C93.9961 6 94.1807 6.3252 94.1807 6.83496C94.1807 7.09863 94.0576 7.4502 93.8115 7.88965C93.583 8.3291 93.2842 8.8125 92.915 9.33984C92.5635 9.84961 92.1855 10.3682 91.7812 10.8955C91.3945 11.4053 91.0342 11.8623 90.7002 12.2666C90.3662 12.6709 90.1201 12.9785 89.9619 13.1895L89.9092 13.2686V14.2705C90.1025 13.9717 90.3662 13.8223 90.7002 13.8223C90.8408 13.8223 91.0518 13.9277 91.333 14.1387C91.6318 14.3496 91.957 14.6221 92.3086 14.9561C92.6602 15.29 92.9941 15.6416 93.3105 16.0107C93.627 16.3623 93.8818 16.6875 94.0752 16.9863C94.2861 17.2852 94.3916 17.5049 94.3916 17.6455C94.3916 18.3662 94.0312 18.7266 93.3105 18.7266C93.0996 18.7266 92.9062 18.665 92.7305 18.542C92.5723 18.4014 92.4229 18.252 92.2822 18.0938L89.9092 15.167V24.8174C89.9092 25.2041 89.8301 25.5293 89.6719 25.793C89.5137 26.0566 89.2236 26.1885 88.8018 26.1885ZM93.3633 24.9492C92.9766 24.9492 92.6426 24.8613 92.3613 24.6855C92.0801 24.5273 91.9395 24.2285 91.9395 23.7891C91.9395 23.3496 92.0801 23.0508 92.3613 22.8926C92.6426 22.7168 92.9766 22.6289 93.3633 22.6289H99.4805V11.3965H94.9189C94.5322 11.3965 94.207 11.3174 93.9434 11.1592C93.6797 10.9834 93.5479 10.6758 93.5479 10.2363C93.5479 9.79688 93.6797 9.49805 93.9434 9.33984C94.207 9.16406 94.5322 9.07617 94.9189 9.07617H99.4805V2.74805C99.4805 2.34375 99.5684 2.01855 99.7441 1.77246C99.9199 1.52637 100.228 1.40332 100.667 1.40332C101.089 1.40332 101.388 1.52637 101.563 1.77246C101.739 2.01855 101.827 2.34375 101.827 2.74805V9.07617H106.23C106.635 9.07617 106.969 9.16406 107.232 9.33984C107.496 9.49805 107.628 9.79688 107.628 10.2363C107.628 10.6758 107.496 10.9834 107.232 11.1592C106.969 11.3174 106.635 11.3965 106.23 11.3965H101.827V22.6289H107.021C107.426 22.6289 107.76 22.7168 108.023 22.8926C108.287 23.0508 108.419 23.3496 108.419 23.7891C108.419 24.2285 108.287 24.5273 108.023 24.6855C107.76 24.8613 107.426 24.9492 107.021 24.9492H93.3633Z" fill="#EB1700"/>
<path d="M36.8594 22.1602C36.3516 22.1602 35.9089 22.0299 35.5312 21.7695C35.1536 21.5221 34.8216 21.2031 34.5352 20.8125C34.2617 20.4089 34.0273 19.9987 33.832 19.582C33.4935 18.8659 33.2396 18.0586 33.0703 17.1602C32.901 16.2487 32.7839 15.3307 32.7188 14.4062C32.6667 13.4688 32.6406 12.6094 32.6406 11.8281C32.6406 11.3073 32.6471 10.793 32.6602 10.2852C32.6732 9.77734 32.6862 9.26302 32.6992 8.74219C32.7122 8.50781 32.7318 8.25391 32.7578 7.98047C32.7969 7.69401 32.8815 7.45312 33.0117 7.25781C33.1549 7.04948 33.3828 6.94531 33.6953 6.94531C34.2943 6.94531 34.5938 7.26432 34.5938 7.90234C34.5938 8.31901 34.5742 8.74219 34.5352 9.17188C34.5091 9.60156 34.4961 10.0247 34.4961 10.4414C34.4961 10.6758 34.4961 11.0729 34.4961 11.6328C34.5091 12.1797 34.5286 12.8112 34.5547 13.5273C34.5938 14.2435 34.6589 14.9727 34.75 15.7148C34.8411 16.457 34.9714 17.1471 35.1406 17.7852C35.3099 18.4232 35.5312 18.944 35.8047 19.3477C36.0911 19.7383 36.4362 19.9336 36.8398 19.9336C37.1784 19.9336 37.4453 19.8164 37.6406 19.582C37.8359 19.3346 37.9922 19.0352 38.1094 18.6836C38.2266 18.332 38.3372 17.9805 38.4414 17.6289C38.5586 17.2643 38.7018 16.9648 38.8711 16.7305C39.0404 16.4831 39.2747 16.3594 39.5742 16.3594C40.1992 16.3594 40.5117 16.6589 40.5117 17.2578C40.5117 17.7786 40.401 18.3125 40.1797 18.8594C39.9714 19.3932 39.7435 19.8815 39.4961 20.3242C39.2096 20.832 38.8516 21.2682 38.4219 21.6328C38.0052 21.9844 37.4844 22.1602 36.8594 22.1602ZM48.2461 18.2148C47.9076 18.2148 47.6732 18.0846 47.543 17.8242C47.4128 17.5508 47.3281 17.2708 47.2891 16.9844C47.1849 16.2031 47.0286 15.3893 46.8203 14.543C46.612 13.6836 46.3516 12.8438 46.0391 12.0234C45.7266 11.2031 45.349 10.4674 44.9062 9.81641C44.8411 9.71224 44.75 9.57552 44.6328 9.40625C44.5286 9.23698 44.431 9.0612 44.3398 8.87891C44.2487 8.69661 44.2031 8.54688 44.2031 8.42969C44.2031 8.14323 44.2812 7.94141 44.4375 7.82422C44.6068 7.70703 44.8216 7.64844 45.082 7.64844C45.2513 7.64844 45.4271 7.72656 45.6094 7.88281C45.7917 8.03906 45.9674 8.23438 46.1367 8.46875C46.306 8.6901 46.4557 8.91146 46.5859 9.13281C46.7161 9.35417 46.8138 9.52344 46.8789 9.64062C47.1133 10.0703 47.3672 10.6107 47.6406 11.2617C47.9271 11.9128 48.1875 12.6029 48.4219 13.332C48.6693 14.0612 48.8711 14.7643 49.0273 15.4414C49.1836 16.1055 49.2617 16.6719 49.2617 17.1406C49.2617 17.8568 48.9232 18.2148 48.2461 18.2148Z" fill="white"/>
</svg>
